<svg width="28" height="15" viewBox="0 0 28 15" fill="none" xmlns="http://www.w3.org/2000/svg">
<path fill-rule="evenodd" clip-rule="evenodd" d="M24.7977 0.00357313H24.8031C26.6067 0.108581 28 1.80969 28 3.84111V11.1589C28 13.1903 26.6067 14.8914 24.8031 14.9964H24.7977L24.634 15H3.37137C1.48487 14.9997 0 13.2547 0 11.1589V3.84111C0 1.74526 1.48487 0.000341557 3.37137 0H24.634L24.7977 0.00357313ZM10.6304 3.84111C10.0204 3.84111 9.48344 4.00011 9.0221 4.31634C8.56135 4.62935 8.19992 5.06137 7.93909 5.61339C7.68111 6.16602 7.5523 6.79794 7.5523 7.50715C7.55233 8.21012 7.68057 8.83711 7.93549 9.38661C8.19038 9.93567 8.54851 10.3676 9.00951 10.6837C9.47375 10.9998 10.018 11.1588 10.643 11.1589C11.1286 11.1589 11.5602 11.0634 11.9365 10.873C12.3158 10.6827 12.6245 10.4221 12.8612 10.0905C13.1008 9.75608 13.2502 9.37533 13.311 8.9489H12.4924C12.4317 9.24957 12.3121 9.50819 12.1362 9.72606C11.9632 9.94404 11.7483 10.1137 11.4904 10.2334C11.2354 10.3501 10.9526 10.4085 10.643 10.4085C10.1849 10.4084 9.78411 10.2837 9.44127 10.0351C9.10164 9.78659 8.83781 9.4429 8.6497 9.00429C8.46153 8.56218 8.36726 8.05268 8.36726 7.47856C8.36734 6.9078 8.46217 6.4052 8.6533 5.97249C8.84743 5.53698 9.11668 5.19836 9.45926 4.95593C9.8021 4.71041 10.1971 4.588 10.643 4.5879C11.1408 4.5879 11.5518 4.72936 11.8736 5.01489C12.1982 5.29732 12.4021 5.63953 12.487 6.03859H13.3074C13.2436 5.59955 13.0867 5.21476 12.8378 4.88626C12.5921 4.55496 12.2796 4.29912 11.9005 4.11803C11.5213 3.93389 11.0976 3.84118 10.6304 3.84111ZM17.7654 3.84111C17.1556 3.84126 16.62 4.00026 16.1588 4.31634C15.698 4.62933 15.3367 5.06134 15.0758 5.61339C14.8178 6.16602 14.689 6.79794 14.689 7.50715C14.6891 8.21012 14.8155 8.83711 15.0704 9.38661C15.3254 9.93599 15.685 10.3675 16.1462 10.6837C16.6106 10.9998 17.1546 11.1589 17.7797 11.1589C18.2654 11.1589 18.6969 11.0634 19.0732 10.873C19.4522 10.6828 19.7595 10.4218 19.9961 10.0905C20.2358 9.75601 20.3869 9.37544 20.4477 8.9489H19.6273C19.5666 9.24936 19.4487 9.5083 19.2729 9.72606C19.1 9.94396 18.8849 10.1137 18.6271 10.2334C18.3721 10.3501 18.0893 10.4085 17.7797 10.4085C17.3215 10.4085 16.9209 10.2838 16.578 10.0351C16.2383 9.7866 15.9746 9.44294 15.7864 9.00429C15.5983 8.56218 15.504 8.05268 15.504 7.47856C15.5041 6.9078 15.5989 6.4052 15.79 5.97249C15.9842 5.53693 16.2533 5.19835 16.596 4.95593C16.9389 4.71033 17.3336 4.58792 17.7797 4.5879C18.2772 4.5879 18.6869 4.72972 19.0085 5.01489C19.3332 5.29734 19.5388 5.63947 19.6237 6.03859H20.4423C20.3786 5.59955 20.2234 5.21476 19.9746 4.88626C19.7289 4.55496 19.4162 4.29915 19.0373 4.11803C18.6579 3.93382 18.2328 3.84111 17.7654 3.84111Z" fill="#C5A47E"/>
</svg>
