<svg width="34" height="38" viewBox="0 0 34 38" fill="none" xmlns="http://www.w3.org/2000/svg">
<path d="M16.1144 0.280199C16.6761 -0.161695 17.5011 -0.0734547 17.9575 0.49217L21.4333 4.85794C21.4507 4.87555 21.4508 4.89321 21.4682 4.92837C21.5209 4.99907 21.5559 5.08787 21.591 5.17625C21.6261 5.26457 21.6612 5.3355 21.6787 5.40617C21.6962 5.49442 21.6966 5.56507 21.6966 5.65335C21.7141 5.74171 21.7141 5.83014 21.6966 5.91849V6.00687C21.679 6.05984 21.6435 6.1127 21.6259 6.16567C21.5909 6.23632 21.5736 6.32492 21.521 6.3956C21.4684 6.48388 21.4156 6.53698 21.3455 6.60757C21.3104 6.64292 21.2926 6.6965 21.2399 6.73185C21.2223 6.74933 21.1875 6.74947 21.17 6.76707C21.1173 6.8024 21.0471 6.82012 20.9944 6.85544C20.9067 6.90842 20.8188 6.94339 20.7311 6.96108C20.6785 6.97874 20.6257 6.99695 20.5556 6.99699C20.503 6.99699 20.4676 7.01423 20.415 7.01425C20.38 7.01425 20.3274 6.97917 20.2923 6.97904C20.2222 6.97904 20.1693 6.9966 20.1167 6.97904C18.9933 6.7139 17.9574 6.59031 16.9393 6.59031C9.05764 6.59035 2.65087 13.0244 2.65087 20.9608C2.65103 28.8971 9.05774 35.3486 16.9393 35.3486C24.8208 35.3486 31.2282 28.8971 31.2283 20.9608C31.2283 17.8853 30.2277 14.9154 28.332 12.3701C27.8931 11.7868 28.016 10.9561 28.5953 10.5142C29.1746 10.0725 29.9996 10.1961 30.4384 10.7793C32.6677 13.7842 33.8611 17.302 33.8436 20.9608C33.8434 30.3641 26.2604 37.9998 16.9221 38C7.58361 38 0.00015725 30.3642 0 20.9608C0 11.5573 7.60107 3.92099 16.9221 3.92099C17.0624 3.92102 17.2028 3.93894 17.3431 3.93894L15.9039 2.13615C15.4651 1.57057 15.5528 0.739787 16.1144 0.280199Z" fill="#EEEEEE"/>
<path fill-rule="evenodd" clip-rule="evenodd" d="M19.9728 15.9819C20.6759 15.9819 21.2789 16.1708 21.7816 16.5474C22.2842 16.921 22.6686 17.4632 22.9349 18.1741C23.2042 18.8822 23.3388 19.738 23.3388 20.7413C23.3388 21.7505 23.206 22.6123 22.9397 23.3264C22.6734 24.0373 22.289 24.5813 21.7864 24.9579C21.2837 25.3315 20.6789 25.5179 19.9728 25.5179C19.2637 25.5148 18.6576 25.3266 18.155 24.9531C17.6524 24.5795 17.2679 24.0355 17.0017 23.3215C16.7354 22.6075 16.6026 21.7474 16.6026 20.7413C16.6026 19.738 16.7354 18.8804 17.0017 18.1693C17.2709 17.4584 17.6572 16.9162 18.1598 16.5426C18.6654 16.169 19.2697 15.982 19.9728 15.9819ZM19.9728 17.1661C19.3535 17.1662 18.8673 17.474 18.5143 18.0885C18.1613 18.7032 17.9831 19.5875 17.9801 20.7413C17.9802 21.5125 18.0595 22.1648 18.2181 22.698C18.3796 23.2283 18.6089 23.6308 18.9051 23.905C19.2012 24.1759 19.5571 24.3116 19.9728 24.3116C20.5951 24.3116 21.0818 24.0056 21.4319 23.394C21.7849 22.7824 21.9612 21.8981 21.9613 20.7413C21.9613 19.9731 21.8807 19.3237 21.7192 18.7935C21.5606 18.2603 21.3313 17.8566 21.0321 17.5824C20.7359 17.3052 20.3827 17.1661 19.9728 17.1661Z" fill="#EEEEEE"/>
<path d="M14.2863 25.3646H12.8951V17.5099H12.8416L10.6419 18.9557V17.6183L12.9355 16.109H14.2863V25.3646Z" fill="#EEEEEE"/>
</svg>
