<svg width="32" height="16" viewBox="0 0 32 16" fill="none" xmlns="http://www.w3.org/2000/svg">
<path d="M10.0007 7.41199H13.9374V4.07703H14.5708V11.35H13.9374V8.00891H10.0007V11.35H9.36726V4.07703H10.0007V7.41199Z" fill="#EEEEEE" fill-opacity="0.91"/>
<path fill-rule="evenodd" clip-rule="evenodd" d="M18.5634 4.07703C19.225 4.07703 19.7913 4.22155 20.261 4.51038C20.7329 4.79917 21.0944 5.21338 21.3451 5.75305C21.5957 6.29282 21.7212 6.9412 21.7212 7.69641C21.7211 8.45838 21.5919 9.11261 21.3346 9.6593C21.0794 10.2038 20.7068 10.6218 20.2168 10.913C19.7291 11.2041 19.1377 11.3499 18.4423 11.35H16.4093V4.07703H18.5634ZM17.0427 10.7531H18.405C19.0011 10.753 19.5005 10.6306 19.9024 10.3844C20.3041 10.1383 20.605 9.78633 20.806 9.32971C21.0069 8.87293 21.1075 8.32828 21.1075 7.69641C21.1053 7.06904 21.0059 6.52872 20.8095 6.07654C20.6153 5.6244 20.3259 5.27796 19.942 5.0365C19.5604 4.79511 19.0883 4.67395 18.5261 4.67395H17.0427V10.7531Z" fill="#EEEEEE" fill-opacity="0.91"/>
<path fill-rule="evenodd" clip-rule="evenodd" d="M27.7071 0.104858C29.5971 0.205244 31.1001 1.84359 31.1001 3.84998V11.35C31.1001 13.3564 29.5971 14.9947 27.7071 15.0951L27.5232 15.1H3.67702C1.70154 15.1 0.100098 13.421 0.100098 11.35V3.84998C0.100098 1.77891 1.70154 0.0999756 3.67702 0.0999756H27.5232L27.7071 0.104858ZM3.67702 0.474731C1.89909 0.474731 0.457557 1.98601 0.457557 3.84998V11.35C0.457557 13.2139 1.89909 14.7252 3.67702 14.7252H27.5232C29.3011 14.7252 30.7426 13.2139 30.7426 11.35V3.84998C30.7426 1.98601 29.3011 0.474732 27.5232 0.474731H3.67702Z" fill="#EEEEEE" fill-opacity="0.91"/>
<path d="M10.0007 7.41199H13.9374V4.07703H14.5708V11.35H13.9374V8.00891H10.0007V11.35H9.36726V4.07703H10.0007V7.41199Z" stroke="#EEEEEE" stroke-opacity="0.91" stroke-width="0.2"/>
<path fill-rule="evenodd" clip-rule="evenodd" d="M18.5634 4.07703C19.225 4.07703 19.7913 4.22155 20.261 4.51038C20.7329 4.79917 21.0944 5.21338 21.3451 5.75305C21.5957 6.29282 21.7212 6.9412 21.7212 7.69641C21.7211 8.45838 21.5919 9.11261 21.3346 9.6593C21.0794 10.2038 20.7068 10.6218 20.2168 10.913C19.7291 11.2041 19.1377 11.3499 18.4423 11.35H16.4093V4.07703H18.5634ZM17.0427 10.7531H18.405C19.0011 10.753 19.5005 10.6306 19.9024 10.3844C20.3041 10.1383 20.605 9.78633 20.806 9.32971C21.0069 8.87293 21.1075 8.32828 21.1075 7.69641C21.1053 7.06904 21.0059 6.52872 20.8095 6.07654C20.6153 5.6244 20.3259 5.27796 19.942 5.0365C19.5604 4.79511 19.0883 4.67395 18.5261 4.67395H17.0427V10.7531Z" stroke="#EEEEEE" stroke-opacity="0.91" stroke-width="0.2"/>
<path fill-rule="evenodd" clip-rule="evenodd" d="M27.7071 0.104858C29.5971 0.205244 31.1001 1.84359 31.1001 3.84998V11.35C31.1001 13.3564 29.5971 14.9947 27.7071 15.0951L27.5232 15.1H3.67702C1.70154 15.1 0.100098 13.421 0.100098 11.35V3.84998C0.100098 1.77891 1.70154 0.0999756 3.67702 0.0999756H27.5232L27.7071 0.104858ZM3.67702 0.474731C1.89909 0.474731 0.457557 1.98601 0.457557 3.84998V11.35C0.457557 13.2139 1.89909 14.7252 3.67702 14.7252H27.5232C29.3011 14.7252 30.7426 13.2139 30.7426 11.35V3.84998C30.7426 1.98601 29.3011 0.474732 27.5232 0.474731H3.67702Z" stroke="#EEEEEE" stroke-opacity="0.91" stroke-width="0.2"/>
</svg>
