<svg width="17" height="17" viewBox="0 0 17 17" fill="none" xmlns="http://www.w3.org/2000/svg">
<path d="M8.5 7.11628C8.82752 7.11628 9.09302 7.38178 9.09302 7.7093V12.4535C9.09302 12.781 8.82752 13.0465 8.5 13.0465C8.17248 13.0465 7.90698 12.781 7.90698 12.4535V7.7093C7.90698 7.38178 8.17248 7.11628 8.5 7.11628Z" fill="#EEEEEE" fill-opacity="0.933333"/>
<path d="M8.5 4.54651C8.93669 4.54651 9.2907 4.90052 9.2907 5.33721C9.2907 5.7739 8.93669 6.12791 8.5 6.12791C8.06331 6.12791 7.7093 5.7739 7.7093 5.33721C7.7093 4.90052 8.06331 4.54651 8.5 4.54651Z" fill="#EEEEEE" fill-opacity="0.933333"/>
<path fill-rule="evenodd" clip-rule="evenodd" d="M8.5 0C13.1944 0 17 3.80558 17 8.5C17 13.1944 13.1944 17 8.5 17C3.80558 17 0 13.1944 0 8.5C0 3.80558 3.80558 0 8.5 0ZM8.5 1.18605C4.46062 1.18605 1.18605 4.46062 1.18605 8.5C1.18605 12.5394 4.46062 15.814 8.5 15.814C12.5394 15.814 15.814 12.5394 15.814 8.5C15.814 4.46062 12.5394 1.18605 8.5 1.18605Z" fill="#EEEEEE" fill-opacity="0.933333"/>
</svg>
