<svg width="21" height="17" viewBox="0 0 21 17" fill="none" xmlns="http://www.w3.org/2000/svg">
<path d="M15.4443 0.00683594C18.0864 0.140529 20.1875 2.32472 20.1875 5V12C20.1875 14.7614 17.9489 17 15.1875 17H5C2.32472 17 0.140529 14.8989 0.00683594 12.2568L0 12V5C0 2.32472 2.10111 0.140528 4.74316 0.00683594L5 0H15.1875L15.4443 0.00683594ZM5 1C2.79086 1 1 2.79086 1 5V12C1 14.2091 2.79086 16 5 16H15.1875C17.3966 16 19.1875 14.2091 19.1875 12V5C19.1875 2.79086 17.3966 1 15.1875 1H5ZM16.0312 8.6875C16.5835 8.6875 17.0312 9.13521 17.0312 9.6875V13C17.0312 13.5523 16.5835 14 16.0312 14H9.53125C8.97896 14 8.53125 13.5523 8.53125 13V9.6875C8.53125 9.13521 8.97896 8.6875 9.53125 8.6875H16.0312Z" fill="#D9D9D9"/>
</svg>
