<svg width="34" height="38" viewBox="0 0 34 38" fill="none" xmlns="http://www.w3.org/2000/svg">
<path d="M15.8866 0.492155C16.343 -0.0734354 17.168 -0.1617 17.7297 0.280184C18.2912 0.739811 18.379 1.57063 17.9402 2.13614L16.5009 3.93893C16.6413 3.9389 16.7816 3.92098 16.922 3.92098C26.2432 3.92099 33.8438 11.5573 33.8438 20.9608C33.8436 30.3642 26.2607 38 16.922 38C7.58335 38 0.000355848 30.3642 0.000190912 20.9608C-0.0173631 17.302 1.17604 13.7842 3.40539 10.7793C3.84424 10.196 4.66928 10.0723 5.24856 10.5142C5.82781 10.9561 5.95071 11.7868 5.51187 12.3701C3.61605 14.9154 2.61546 17.8853 2.61546 20.9608C2.61563 28.897 9.02261 35.3485 16.9041 35.3486C24.7859 35.3486 31.1933 28.8971 31.1935 20.9608C31.1935 13.0244 24.786 6.5903 16.9041 6.5903C15.8861 6.59032 14.8506 6.71393 13.7273 6.97902C13.6747 6.99669 13.6219 6.97905 13.5517 6.97902C13.5167 6.97902 13.4641 7.01403 13.429 7.01424C13.3764 7.01424 13.341 6.99701 13.2884 6.99698C13.2183 6.99698 13.1655 6.97874 13.1129 6.96107C13.0252 6.94341 12.9373 6.90839 12.8496 6.85543C12.797 6.82013 12.7267 6.80231 12.674 6.76705C12.6565 6.74939 12.621 6.74948 12.6034 6.73184C12.5508 6.69649 12.5336 6.6429 12.4985 6.60756C12.4283 6.53687 12.3756 6.48395 12.323 6.39559C12.2703 6.32488 12.2525 6.23637 12.2174 6.16566C12.1998 6.11275 12.165 6.05977 12.1474 6.00686V5.91848C12.1299 5.8301 12.1299 5.74172 12.1474 5.65334C12.1474 5.56508 12.1471 5.49437 12.1646 5.40616C12.1821 5.33552 12.2173 5.2645 12.2523 5.17623C12.2874 5.08786 12.3231 4.99906 12.3758 4.92836C12.3932 4.89321 12.3932 4.87556 12.4107 4.85793L15.8866 0.492155Z" fill="#EEEEEE"/>
<path fill-rule="evenodd" clip-rule="evenodd" d="M19.2712 15.9819C19.9742 15.982 20.5768 16.1709 21.0794 16.5474C21.5821 16.921 21.9671 17.4631 22.2334 18.1741C22.5027 18.8822 22.6373 19.738 22.6373 20.7413C22.6373 21.7505 22.5038 22.6123 22.2375 23.3263C21.9712 24.0373 21.5868 24.5813 21.0842 24.9579C20.5816 25.3314 19.9772 25.5178 19.2712 25.5179C18.5621 25.5149 17.9561 25.3266 17.4534 24.9531C16.9507 24.5795 16.5663 24.0356 16.3 23.3215C16.0338 22.6075 15.9003 21.7475 15.9003 20.7413C15.9003 19.738 16.0337 18.8804 16.3 18.1693C16.5693 17.4585 16.955 16.9161 17.4575 16.5426C17.9632 16.169 18.568 15.9819 19.2712 15.9819ZM19.2712 17.1661C18.6518 17.1661 18.1651 17.4739 17.812 18.0885C17.4591 18.7031 17.2808 19.5875 17.2779 20.7413C17.2779 21.5125 17.3572 22.1648 17.5158 22.698C17.6774 23.2283 17.9066 23.6308 18.2029 23.905C18.499 24.176 18.8554 24.3116 19.2712 24.3116C19.8934 24.3116 20.3796 24.0056 20.7297 23.394C21.0827 22.7824 21.259 21.8981 21.259 20.7413C21.259 19.9731 21.1785 19.3237 21.017 18.7935C20.8584 18.2602 20.6291 17.8566 20.3299 17.5824C20.0338 17.3053 19.681 17.1661 19.2712 17.1661Z" fill="#EEEEEE"/>
<path d="M13.5847 25.3646H12.1927V17.5099H12.1392L9.94014 18.9557V17.6183L12.2331 16.109H13.5847V25.3646Z" fill="#EEEEEE"/>
</svg>
