<svg width="489" height="121" viewBox="0 0 489 121" fill="none" xmlns="http://www.w3.org/2000/svg">
<path d="M31.1782 2.38944C31.6495 2.38944 32.0315 2.0074 32.0315 1.53613C32.0315 1.06485 31.6495 0.68281 31.1782 0.68281H0.853314C0.382041 0.68281 0 1.06485 0 1.53613C0 2.0074 0.382042 2.38944 0.853315 2.38944H4.40884C6.84377 2.38944 8.81768 4.36334 8.81768 6.79828V114.032C8.81768 116.467 6.84377 118.44 4.40884 118.44H0.853317C0.382043 118.44 0 118.823 0 119.294C0 119.765 0.382043 120.147 0.853318 120.147H31.1782C31.6495 120.147 32.0315 119.765 32.0315 119.294C32.0315 118.823 31.6495 118.44 31.1782 118.44H27.8926C25.6068 118.44 23.7537 116.587 23.7537 114.302V6.52835C23.7537 4.24249 25.6068 2.38944 27.8926 2.38944H31.1782Z" fill="white"/>
<path d="M129.564 32.0235C129.564 15.1612 116.479 1.02324 99.6192 0.741198C97.2923 0.702273 95.0373 0.68281 92.854 0.68281C63.1019 0.68281 48.2258 10.6382 48.2258 30.5489C48.2258 39.7647 50.7452 47.8428 55.7838 54.7831C58.4231 58.5377 62.5021 61.5527 68.0206 63.8282C73.5392 65.99 80.1974 67.0708 87.9953 67.0708C102.652 67.0708 114.628 78.9524 114.628 93.609V112.679C114.628 116.804 117.972 120.147 122.096 120.147C126.221 120.147 129.564 116.804 129.564 112.679V32.0235ZM92.6741 2.38944C105.173 2.38944 114.628 13.0814 114.628 25.5805V38.7313C114.628 53.4402 102.704 65.3642 87.9953 65.3642C71.0798 64.6815 62.622 53.1902 62.622 30.8902C62.622 21.7882 65.1414 14.791 70.1801 9.89863C75.2187 4.8925 82.7167 2.38944 92.6741 2.38944Z" fill="white"/>
<path d="M481.956 7.05816C481.769 7.50211 481.266 7.72056 480.812 7.55868C470.194 3.77128 460.147 1.87759 450.67 1.87759C441.073 1.87759 433.575 3.81177 428.176 7.68014C422.778 11.5485 420.078 16.896 420.078 23.7225C420.078 32.0281 424.637 38.4564 433.755 43.0074C437.834 44.9416 442.272 46.762 447.071 48.4687C451.99 50.0615 456.908 51.8819 461.827 53.9299C466.746 55.9778 471.245 58.3102 475.324 60.9271C479.403 63.5439 482.702 67.1847 485.221 71.8495C487.74 76.4005 489 82.26 489 89.4278C489 96.4819 486.901 102.512 482.702 107.518C478.503 112.524 473.404 115.938 467.406 117.758C461.527 119.465 454.629 120.318 446.711 120.318C432.266 120.318 419.89 116.992 409.583 110.341C409.216 110.104 409.116 109.612 409.357 109.246C409.609 108.864 410.129 108.774 410.502 109.038C414.359 111.775 419.231 114.056 425.117 115.881C431.475 117.701 437.954 118.611 444.552 118.611C454.269 118.611 462.547 116.506 469.385 112.297C476.343 107.973 479.822 101.659 479.822 93.3531C479.822 84.2511 475.264 77.1401 466.146 72.0202C462.067 69.7447 457.568 67.6398 452.65 65.7056C447.851 63.7715 442.992 61.7804 438.073 59.7324C433.155 57.5707 428.656 55.1814 424.577 52.5646C415.459 46.8758 410.901 38.7977 410.901 28.3304C410.901 20.0248 413.84 13.312 419.718 8.19213C425.597 2.95846 434.414 0.341619 446.171 0.341618C457.742 0.341617 469.483 2.17724 481.395 5.84848C481.903 6.00525 482.163 6.56771 481.956 7.05816Z" fill="white"/>
<path d="M298.501 119.57C298.341 119.922 297.99 120.147 297.604 120.147C296.889 120.147 296.411 119.409 296.705 118.757L349.645 1.21428C349.799 0.872459 350.076 0.60061 350.42 0.452204C351.206 0.113136 352.117 0.499826 352.419 1.30131L393.567 110.476C395.329 115.152 391.874 120.147 386.877 120.147C383.893 120.147 381.224 118.295 380.179 115.501L374.898 101.374C370.677 90.0843 359.891 82.6013 347.838 82.6013H335.925C323.383 82.6013 311.998 89.9272 306.801 101.341L298.501 119.57ZM358.731 57.8038C353.406 43.5216 333.473 42.8033 327.134 56.6652C321.951 67.999 330.234 80.8946 342.697 80.8946C354.631 80.8946 362.9 68.9862 358.731 57.8038Z" fill="white"/>
<path fill-rule="evenodd" clip-rule="evenodd" d="M207.476 120.83C189.841 120.83 175.745 115.596 165.187 105.129C154.63 94.6612 149.352 79.1877 149.352 58.7081C149.352 38.2285 154.33 23.3239 164.288 13.9943C174.125 4.66475 187.382 -4.69421e-05 204.057 -4.69421e-05L228.41 0.511986C233.569 0.511985 238.968 1.02397 244.606 2.04795C250.365 3.07193 256.003 5.00612 261.522 7.8505C267.16 10.5811 271.899 14.165 275.738 18.6023C279.697 22.9258 282.876 28.6714 285.275 35.8393C287.675 43.0071 288.874 51.711 288.874 61.9508C288.874 72.1906 287.075 81.4064 283.476 89.5982C279.997 97.6763 275.198 103.877 269.08 108.201C257.203 116.62 242.867 120.83 226.071 120.83L207.476 120.83ZM175.985 103.763C184.581 115.228 198.538 105.211 198.538 90.8817L198.538 29.5165C198.538 15.0462 184.443 4.19828 175.445 15.5303C168.007 24.7461 164.288 39.1956 164.288 58.8788C164.288 78.4482 168.187 93.4097 175.985 103.763ZM235.009 105.47C226.611 115.916 213.474 106.145 213.474 92.7414L213.474 2.77778C213.474 2.75106 213.495 2.72875 213.521 2.72631C213.527 2.7258 213.533 2.72621 213.538 2.72752C221.705 4.68687 228.682 9.46645 234.469 17.0663C242.147 27.3061 245.986 42.3245 245.986 62.1214C245.986 81.9183 242.327 96.3678 235.009 105.47ZM244.906 108.371C240.841 111.846 236.292 114.594 231.261 116.615C230.199 117.042 230.507 119.02 231.65 118.952C233.569 118.839 236.208 118.383 239.567 117.587C242.927 116.677 246.046 115.482 248.925 114.003C251.804 112.524 254.803 110.362 257.923 107.518C261.162 104.56 263.921 101.09 266.2 97.1074C271.359 87.7778 273.938 75.6038 273.938 60.5855C273.938 49.8906 272.559 40.6747 269.799 32.938C267.04 25.0875 263.861 19.2849 260.262 15.5304C256.783 11.7758 252.524 8.8176 247.485 6.65586C242.447 4.38035 238.428 3.07193 235.429 2.73061C232.429 2.38928 228.95 2.21862 224.991 2.21862C224.387 2.21862 224.26 3.11252 224.83 3.31208C232.483 5.98933 239.235 10.2896 245.086 16.213C255.644 26.9079 260.922 42.6089 260.922 63.316C260.922 73.6696 259.543 82.7147 256.783 90.4515C253.904 98.0744 249.945 104.048 244.906 108.371Z" fill="white"/>
</svg>
