<svg width="35" height="34" viewBox="0 0 35 34" fill="none" xmlns="http://www.w3.org/2000/svg">
<ellipse cx="17.5" cy="17" rx="17.5" ry="17" fill="#151515"/>
<path fill-rule="evenodd" clip-rule="evenodd" d="M18.9043 9.12179C18.612 9 18.2413 9 17.5 9C16.7587 9 16.388 9 16.0957 9.12179C15.7058 9.28418 15.3961 9.59566 15.2346 9.9877C15.1609 10.1667 15.1321 10.3748 15.1208 10.6784C15.1042 11.1245 14.8767 11.5375 14.4922 11.7607C14.1078 11.984 13.6384 11.9756 13.2459 11.767C12.9788 11.625 12.7852 11.5461 12.5942 11.5208C12.1759 11.4654 11.7528 11.5794 11.418 11.8378C11.1669 12.0315 10.9816 12.3543 10.611 12.9999C10.2403 13.6456 10.055 13.9684 10.0137 14.2839C9.95861 14.7046 10.072 15.1301 10.3289 15.4668C10.4461 15.6205 10.6109 15.7496 10.8666 15.9112C11.2426 16.1488 11.4845 16.5535 11.4844 17C11.4844 17.4465 11.2425 17.8511 10.8666 18.0886C10.6108 18.2503 10.446 18.3795 10.3288 18.5332C10.0719 18.8698 9.95854 19.2953 10.0136 19.716C10.0549 20.0315 10.2403 20.3544 10.6109 21C10.9815 21.6456 11.1669 21.9685 11.4179 22.1622C11.7527 22.4205 12.1758 22.5345 12.5941 22.4791C12.7851 22.4538 12.9787 22.3749 13.2458 22.233C13.6383 22.0243 14.1077 22.016 14.4922 22.2392C14.8767 22.4625 15.1042 22.8754 15.1208 23.3217C15.1321 23.6252 15.1609 23.8334 15.2346 24.0123C15.3961 24.4043 15.7058 24.7158 16.0957 24.8782C16.388 25 16.7587 25 17.5 25C18.2413 25 18.612 25 18.9043 24.8782C19.2941 24.7158 19.6039 24.4043 19.7653 24.0123C19.839 23.8334 19.8679 23.6252 19.8792 23.3216C19.8958 22.8754 20.1233 22.4625 20.5077 22.2392C20.8922 22.0159 21.3616 22.0243 21.7541 22.233C22.0212 22.3749 22.2148 22.4538 22.4058 22.479C22.8241 22.5345 23.2472 22.4205 23.5819 22.1622C23.8331 21.9684 24.0184 21.6456 24.389 20.9999C24.7597 20.3543 24.945 20.0315 24.9863 19.716C25.0414 19.2953 24.928 18.8698 24.6712 18.5331C24.5539 18.3794 24.3891 18.2502 24.1333 18.0886C23.7574 17.8511 23.5155 17.4464 23.5155 16.9999C23.5155 16.5534 23.7574 16.1489 24.1333 15.9114C24.3892 15.7497 24.5539 15.6206 24.6712 15.4668C24.9281 15.1302 25.0414 14.7047 24.9864 14.284C24.945 13.9684 24.7597 13.6456 24.3891 13C24.0184 12.3544 23.8331 12.0316 23.582 11.8378C23.2473 11.5795 22.8242 11.4655 22.4059 11.5209C22.2149 11.5462 22.0212 11.6251 21.7542 11.767C21.3617 11.9757 20.8923 11.984 20.5078 11.7608C20.1233 11.5375 19.8958 11.1245 19.8791 10.6784C19.8679 10.3748 19.839 10.1667 19.7653 9.9877C19.6039 9.59566 19.2941 9.28418 18.9043 9.12179ZM17.5 19.4C18.818 19.4 19.8864 18.3255 19.8864 17C19.8864 15.6745 18.818 14.6 17.5 14.6C16.182 14.6 15.1135 15.6745 15.1135 17C15.1135 18.3255 16.182 19.4 17.5 19.4Z" fill="#585858"/>
</svg>
