<svg width="35" height="34" viewBox="0 0 35 34" fill="none" xmlns="http://www.w3.org/2000/svg">
<ellipse cx="17.5" cy="17" rx="17.5" ry="17" fill="#151515"/>
<path d="M20.5909 16.1429C21.8736 16.1429 22.9014 14.9943 22.9014 13.5714C22.9014 12.1486 21.8736 11 20.5909 11C19.3082 11 18.2727 12.1486 18.2727 13.5714C18.2727 14.9943 19.3082 16.1429 20.5909 16.1429ZM14.4091 16.1429C15.6918 16.1429 16.7195 14.9943 16.7195 13.5714C16.7195 12.1486 15.6918 11 14.4091 11C13.1264 11 12.0909 12.1486 12.0909 13.5714C12.0909 14.9943 13.1264 16.1429 14.4091 16.1429ZM14.4091 17.8571C12.6086 17.8571 9 18.86 9 20.8571V23H19.8182V20.8571C19.8182 18.86 16.2095 17.8571 14.4091 17.8571ZM20.5909 17.8571C20.3668 17.8571 20.1118 17.8743 19.8414 17.9C20.7377 18.62 21.3636 19.5886 21.3636 20.8571V23H26V20.8571C26 18.86 22.3914 17.8571 20.5909 17.8571Z" fill="#585858"/>
</svg>
