<svg width="15" height="15" viewBox="0 0 15 15" fill="none" xmlns="http://www.w3.org/2000/svg">
<path d="M5.00323 6.71192C5.55587 6.71192 6.00388 6.26115 6.00388 5.70513C6.00388 5.1491 5.55587 4.69834 5.00323 4.69834C4.45059 4.69834 4.00258 5.1491 4.00258 5.70513C4.00258 6.26115 4.45059 6.71192 5.00323 6.71192Z" fill="#B7B7B7"/>
<path d="M10.6736 5.70513C10.6736 6.26115 10.2255 6.71192 9.67291 6.71192C9.12029 6.71192 8.67227 6.26115 8.67227 5.70513C8.67227 5.1491 9.12029 4.69834 9.67291 4.69834C10.2255 4.69834 10.6736 5.1491 10.6736 5.70513Z" fill="#B7B7B7"/>
<path d="M5.26256 8.41769C5.09544 8.09182 4.69843 7.96081 4.3715 8.12532C4.04196 8.2911 3.90839 8.69429 4.07316 9.02579C4.12817 9.13613 4.19822 9.23956 4.27165 9.33809C4.3936 9.50173 4.57769 9.71242 4.8368 9.92096C5.3635 10.3449 6.17552 10.7392 7.3382 10.7392C8.50089 10.7392 9.31295 10.3449 9.83962 9.92096C10.0987 9.71242 10.2828 9.50173 10.4048 9.33809C10.4785 9.23923 10.5455 9.1358 10.6029 9.02653C10.7661 8.69932 10.6303 8.28902 10.3049 8.12532C9.97797 7.96081 9.58099 8.09182 9.41388 8.41769C9.40467 8.4344 9.27912 8.65301 9.00615 8.87276C8.69902 9.11996 8.17681 9.39682 7.3382 9.39682C6.4996 9.39682 5.97745 9.11996 5.67027 8.87276C5.39729 8.65301 5.27177 8.4344 5.26256 8.41769Z" fill="#B7B7B7"/>
<path fill-rule="evenodd" clip-rule="evenodd" d="M7.33807 14.7662C11.3908 14.7662 14.6761 11.4607 14.6761 7.38311C14.6761 3.30553 11.3908 0 7.33807 0C3.28537 0 0 3.30553 0 7.38311C0 11.4607 3.28537 14.7662 7.33807 14.7662ZM7.33807 13.4193C4.02474 13.4193 1.33875 10.7168 1.33875 7.38311C1.33875 4.04944 4.02474 1.34697 7.33807 1.34697C10.6514 1.34697 13.3374 4.04944 13.3374 7.38311C13.3374 10.7168 10.6514 13.4193 7.33807 13.4193Z" fill="#B7B7B7"/>
</svg>
