<svg width="54" height="54" viewBox="0 0 54 54" fill="none" xmlns="http://www.w3.org/2000/svg">
<path d="M0 8C0 3.58172 3.58172 0 8 0H45.201C49.6193 0 53.201 3.58172 53.201 8V45.5276C53.201 49.9458 49.6193 53.5276 45.201 53.5276H7.99999C3.58172 53.5276 0 49.9458 0 45.5276V8Z" fill="#151515"/>
<path d="M25.5857 32.751V30.6757C24.0925 30.549 22.6301 30.043 21.3841 29.1566C21.0588 28.9251 21.0016 28.4976 21.2563 28.202C21.511 27.9064 21.9811 27.8544 22.3064 28.0858C24.672 29.7688 27.9959 29.7688 30.3616 28.0858C30.6868 27.8544 31.1569 27.9063 31.4116 28.202C31.6663 28.4976 31.6092 28.9251 31.2838 29.1566C30.0377 30.0431 28.5752 30.5491 27.0819 30.6757V32.751C27.0819 33.1265 26.7469 33.4309 26.3338 33.4309C25.9207 33.4308 25.5857 33.1264 25.5857 32.751Z" fill="#B7B7B7"/>
<path fill-rule="evenodd" clip-rule="evenodd" d="M26.3478 19.3804C28.0182 19.4087 29.3485 20.6583 29.3263 22.1749V25.6882L29.3251 25.8299C29.2729 27.2879 27.971 28.4684 26.3478 28.4959C26.3386 28.496 26.329 28.496 26.3197 28.4959C24.6444 28.4675 23.3111 27.2107 23.3413 25.6882V22.1749C23.3191 20.6583 24.6494 19.4087 26.3197 19.3804H26.3478ZM26.3338 20.7405C25.4911 20.7616 24.8227 21.3957 24.8375 22.1632V25.7127C24.8222 26.4804 25.4908 27.1147 26.3338 27.1358C27.1767 27.1148 27.8452 26.4805 27.83 25.7127V22.1632C27.8449 21.3956 27.1765 20.7615 26.3338 20.7405Z" fill="#B7B7B7"/>
</svg>
