<svg width="53" height="35" viewBox="0 0 53 35" fill="none" xmlns="http://www.w3.org/2000/svg">
<rect width="53" height="35" rx="8" fill="#272727"/>
<path fill-rule="evenodd" clip-rule="evenodd" d="M27.8064 12.9157C28.2353 12.4087 28.5244 11.7026 28.4452 11C27.8272 11.024 27.0795 11.4027 26.6364 11.9091C26.2385 12.3585 25.8911 13.0766 25.9845 13.7654C26.6739 13.8176 27.3775 13.4233 27.8064 12.9157ZM29.3523 17.3751C29.3696 19.1913 30.9822 19.7954 31 19.8032C30.9869 19.8458 30.7424 20.6641 30.1506 21.5101C29.6385 22.2409 29.1073 22.9687 28.2704 22.9843C27.4483 22.9993 27.1836 22.5079 26.2432 22.5079C25.3034 22.5079 25.0096 22.9686 24.2315 22.9992C23.4238 23.0286 22.8081 22.2086 22.2924 21.4802C21.2372 19.9904 20.4312 17.2701 21.5138 15.4341C22.0515 14.5227 23.0121 13.9447 24.0555 13.9303C24.8484 13.9153 25.5972 14.4518 26.082 14.4518C26.5668 14.4518 27.4769 13.8068 28.4333 13.9016C28.8337 13.9178 29.9579 14.0593 30.6794 15.0919C30.6211 15.1273 29.3381 15.8571 29.3523 17.3751Z" fill="#EEEEEE"/>
</svg>
