<svg width="6" height="6" viewBox="0 0 6 6" fill="none" xmlns="http://www.w3.org/2000/svg">
<path d="M5.68271 0.400025C5.68271 0.179111 5.50363 2.43945e-05 5.28271 2.45525e-05L1.68271 2.44472e-05C1.4618 2.46158e-05 1.28271 0.179111 1.28271 0.400025C1.28271 0.620938 1.4618 0.800024 1.68271 0.800025L4.88271 0.800024L4.88271 4.00002C4.88271 4.22094 5.0618 4.40002 5.28271 4.40002C5.50363 4.40002 5.68271 4.22094 5.68271 4.00002L5.68271 0.400025ZM0.282715 5.40002L0.565558 5.68287L5.56556 0.682867L5.28271 0.400025L4.99987 0.117182L-0.000127868 5.11718L0.282715 5.40002Z" fill="#EEEEEE"/>
</svg>
