<svg width="10" height="10" viewBox="0 0 10 10" fill="none" xmlns="http://www.w3.org/2000/svg">
<path fill-rule="evenodd" clip-rule="evenodd" d="M5 0C2.23858 0 0 2.23858 0 5C0 7.76144 2.23858 10 5 10C7.76144 10 10 7.76144 10 5C10 2.23858 7.76144 0 5 0Z" fill="#4D4D4D"/>
<path d="M6.82805 3.94432C6.96428 3.80811 6.96428 3.58724 6.82805 3.45101C6.69181 3.31478 6.47098 3.31478 6.33474 3.45101L4.25581 5.5299L3.57225 4.84637C3.43602 4.71014 3.21514 4.71014 3.07892 4.84637C2.94269 4.9826 2.94269 5.20344 3.07892 5.33967L4.00915 6.26991C4.14539 6.40614 4.36623 6.40614 4.50246 6.26991L6.82805 3.94432Z" fill="#EEEEEE"/>
<path d="M6.82805 3.94432C6.96428 3.80811 6.96428 3.58724 6.82805 3.45101C6.69181 3.31478 6.47098 3.31478 6.33474 3.45101L4.25581 5.5299L3.57225 4.84637C3.43602 4.71014 3.21514 4.71014 3.07892 4.84637C2.94269 4.9826 2.94269 5.20344 3.07892 5.33967L4.00915 6.26991C4.14539 6.40614 4.36623 6.40614 4.50246 6.26991L6.82805 3.94432Z" fill="#EEEEEE"/>
</svg>
