<svg width="41" height="41" viewBox="0 0 41 41" fill="none" xmlns="http://www.w3.org/2000/svg">
<rect width="41" height="41" rx="5" fill="#0B0B0A"/>
<path d="M16.3636 20.5H14M27 20.5H24.6364M17.575 17.575L15.9039 15.9039M25.0961 25.0961L23.425 23.425M17.575 23.425L15.9039 25.0961M25.0961 15.9039L23.425 17.575M20.5 24.6364V27M20.5 14V16.3636M20.5 22.8636C21.1269 22.8636 21.7281 22.6146 22.1713 22.1713C22.6146 21.7281 22.8636 21.1269 22.8636 20.5C22.8636 19.8731 22.6146 19.2719 22.1713 18.8287C21.7281 18.3854 21.1269 18.1364 20.5 18.1364C19.8731 18.1364 19.2719 18.3854 18.8287 18.8287C18.3854 19.2719 18.1364 19.8731 18.1364 20.5C18.1364 21.1269 18.3854 21.7281 18.8287 22.1713C19.2719 22.6146 19.8731 22.8636 20.5 22.8636Z" stroke="#EEEEEE" stroke-miterlimit="10" stroke-linecap="round"/>
</svg>
