<svg width="53" height="35" viewBox="0 0 53 35" fill="none" xmlns="http://www.w3.org/2000/svg">
<rect width="53" height="35" rx="8" fill="#272727"/>
<path d="M30.8496 12.9223C29.9437 12.4949 28.9788 12.18 27.9624 12C27.8372 12.2249 27.6899 12.5324 27.5941 12.7798C26.5188 12.6149 25.4508 12.6149 24.3976 12.7798C24.2945 12.5324 24.1472 12.2249 24.022 12C23.0055 12.18 22.0407 12.4949 21.1347 12.9223C19.3081 15.7266 18.8147 18.4635 19.0577 21.1554C20.273 22.0777 21.4441 22.6326 22.6004 23C22.8877 22.6026 23.1381 22.1752 23.3591 21.7328C22.9393 21.5753 22.5415 21.3729 22.1659 21.1404C22.269 21.0654 22.3648 20.983 22.4605 20.908C24.7659 22.0027 27.2627 22.0027 29.5386 20.908C29.6344 20.9905 29.7301 21.0654 29.8332 21.1404C29.4576 21.3729 29.0525 21.5678 28.64 21.7328C28.861 22.1752 29.1114 22.6026 29.3987 23C30.555 22.6326 31.7335 22.0777 32.9414 21.1554C33.2286 18.0286 32.4479 15.3217 30.8644 12.9223H30.8496ZM23.6684 19.5058C22.9761 19.5058 22.4089 18.8535 22.4089 18.0511C22.4089 17.2488 22.9613 16.5965 23.6684 16.5965C24.3755 16.5965 24.9353 17.2488 24.9279 18.0511C24.9279 18.846 24.3755 19.5058 23.6684 19.5058ZM28.316 19.5058C27.6236 19.5058 27.0565 18.8535 27.0565 18.0511C27.0565 17.2488 27.6089 16.5965 28.316 16.5965C29.023 16.5965 29.5828 17.2488 29.5754 18.0511C29.5754 18.846 29.023 19.5058 28.316 19.5058Z" fill="#EEEEEE"/>
</svg>
