<svg width="53" height="35" viewBox="0 0 53 35" fill="none" xmlns="http://www.w3.org/2000/svg">
<rect width="53" height="35" rx="8" fill="#272727"/>
<path d="M26.6123 20.815C27.3674 20.815 28.0051 20.615 28.5051 20.285C29.1021 19.895 29.5 19.315 29.6327 18.63H26.6122V16.5H31.898C31.9643 16.86 32 17.235 32 17.625C32 19.3 31.3878 20.71 30.3265 21.67C29.398 22.51 28.1276 23 26.6122 23C24.4184 23 22.5255 21.765 21.6021 19.97V19.965C21.2194 19.225 21 18.39 21 17.5C21 16.61 21.2194 15.775 21.6021 15.035C22.5255 13.235 24.4184 12 26.6122 12C28.1276 12 29.3929 12.545 30.3674 13.435L28.7602 15.01C28.1735 14.47 27.4388 14.19 26.6123 14.19C25.1531 14.19 23.9133 15.155 23.4694 16.455C23.3572 16.785 23.2908 17.135 23.2908 17.5C23.2908 17.865 23.3572 18.215 23.4694 18.545V18.55C23.9133 19.85 25.1531 20.815 26.6123 20.815Z" fill="#EEEEEE"/>
</svg>
