<svg width="41" height="41" viewBox="0 0 41 41" fill="none" xmlns="http://www.w3.org/2000/svg">
<rect width="41" height="41" rx="5" fill="#0B0B0A"/>
<path fill-rule="evenodd" clip-rule="evenodd" d="M21.4064 15C21.793 15.0001 22.1062 15.2877 22.1062 15.6422C22.1062 15.7328 22.0851 15.8187 22.0481 15.8969C22.3313 16.0054 22.5986 16.1438 22.8512 16.3156C23.6401 16.8524 24.2293 17.6826 24.7078 18.8359L24.7087 18.8375C24.7338 18.8988 24.7539 18.9625 24.7686 19.0265L25.967 24.1718C26.0576 24.5508 25.9596 24.949 25.6956 25.2554C25.4307 25.5625 25.026 25.7461 24.5942 25.7491H22.6213C22.5749 26.2316 22.3753 26.6942 22.0421 27.0765L21.9527 27.1741C21.4591 27.6837 20.7561 27.9843 20.0102 27.9999C20.0034 28 19.9961 28 19.9894 27.9999C19.2898 27.9851 18.6281 27.7199 18.1414 27.2663L18.0468 27.1733C17.7081 26.8233 17.4891 26.3956 17.406 25.9429C17.3576 25.8841 17.3182 25.8188 17.2941 25.7468H15.4053C14.9736 25.7436 14.5696 25.5609 14.3048 25.2538C14.041 24.9479 13.9426 24.5505 14.0325 24.1718L15.2319 19.025C15.2464 18.9616 15.2666 18.8986 15.2917 18.8375V18.8359C15.7702 17.6826 16.3604 16.8524 17.1493 16.3156C17.3663 16.168 17.5948 16.045 17.8344 15.9445C17.7813 15.8541 17.7486 15.752 17.7485 15.6422C17.7485 15.2877 18.0618 15.0001 18.4483 15H21.4064ZM18.4067 26.1999C18.4829 26.362 18.586 26.5137 18.7154 26.6476C19.0455 26.9887 19.5108 27.1861 19.9998 27.1991C20.4885 27.1863 20.9531 26.989 21.2832 26.6483C21.413 26.5143 21.5164 26.3622 21.5928 26.1999H18.4067ZM19.9998 16.3672C19.0158 16.3672 18.2792 16.5492 17.6843 16.9539C17.0824 17.3635 16.5718 18.0376 16.1242 19.1164L16.1234 19.1156C16.114 19.1385 16.1073 19.163 16.1017 19.1875L16.1008 19.189L14.9015 24.3366L14.9006 24.3382C14.8647 24.4885 14.9049 24.6455 15.0064 24.7632C15.1074 24.8802 15.2572 24.9456 15.4122 24.9468H17.7511C17.8181 24.9272 17.8895 24.9163 17.9636 24.9163H21.8912C21.9736 24.9163 22.0527 24.9298 22.1262 24.9538C22.144 24.9518 22.1618 24.9492 22.1799 24.9491H24.5873C24.7425 24.9481 24.893 24.8818 24.994 24.7648L25.0287 24.7187C25.1038 24.6079 25.1312 24.4721 25.0998 24.3406L25.099 24.3382L23.8987 19.189V19.1875C23.8931 19.1627 23.885 19.1383 23.8753 19.1148C23.4279 18.0372 22.9177 17.3632 22.3161 16.9539C21.7211 16.5491 20.984 16.3672 19.9998 16.3672Z" fill="#EEEEEE" fill-opacity="0.933333"/>
<circle cx="24.5" cy="16.5" r="2.5" fill="#7E1010"/>
</svg>
