<svg width="53" height="35" viewBox="0 0 53 35" fill="none" xmlns="http://www.w3.org/2000/svg">
<rect width="53" height="35" rx="8" fill="#272727"/>
<path d="M33 15.5316V22.0213C33 22.2714 32.9043 22.512 32.7325 22.6937C32.5476 22.8892 32.2904 23 32.0213 23H29.1929H20.9787C20.7096 23 20.4524 22.8892 20.2675 22.6937C20.0957 22.512 20 22.2714 20 22.0213V14.9464C20 14.2112 20 13.8436 20.107 13.6313C20.3112 13.226 20.7627 13.0091 21.2067 13.1029C21.4393 13.152 21.7263 13.3818 22.3003 13.8412L26.7972 17.4406L29.1929 15.3393L30.345 14.3288C31.1881 13.5893 31.6096 13.2195 31.9672 13.2078C32.278 13.1976 32.5758 13.3325 32.773 13.5729C33 13.8495 33 14.4102 33 15.5316Z" fill="#EEEEEE"/>
<path d="M20 14.9464V22.0213C20 22.2714 20.0957 22.512 20.2675 22.6937C20.4524 22.8892 20.7096 23 20.9787 23H29.1929M20 14.9464L23.6274 18.2599C23.7968 18.4147 23.8816 18.4921 23.9784 18.5473C24.0643 18.5963 24.157 18.6322 24.2535 18.654C24.3622 18.6786 24.477 18.6786 24.7065 18.6786H24.7834C25.0063 18.6786 25.1177 18.6786 25.2236 18.6553C25.3176 18.6347 25.408 18.6007 25.4922 18.5542C25.5872 18.5019 25.671 18.4284 25.8385 18.2814L29.1929 15.3393M20 14.9464C20 14.2112 20 13.8436 20.107 13.6313C20.3112 13.226 20.7627 13.0091 21.2067 13.1029C21.4393 13.152 21.7263 13.3818 22.3003 13.8412L26.8714 17.5M29.1929 15.3393L30.345 14.3288C31.1881 13.5893 31.6096 13.2195 31.9672 13.2078C32.278 13.1976 32.5758 13.3325 32.773 13.5729C33 13.8495 33 14.4102 33 15.5316V22.0213C33 22.2714 32.9043 22.512 32.7325 22.6937C32.5476 22.8892 32.2904 23 32.0213 23H29.1929M29.1929 15.3393V23" stroke="#272727" stroke-linejoin="round"/>
</svg>
