<svg width="7" height="9" viewBox="0 0 7 9" fill="none" xmlns="http://www.w3.org/2000/svg">
<path d="M0 3.96053V1.8008C0.000473675 1.60217 0.142729 1.4414 0.318145 1.44069C1.41311 1.41068 2.46211 0.936769 3.27414 0.105299C3.39919 -0.0350996 3.60081 -0.0350996 3.72586 0.105299C4.53866 0.935535 5.58722 1.40928 6.68186 1.44069C6.85743 1.44141 6.99953 1.60217 7 1.8008V3.96053C7 7.5675 3.63998 8.96408 3.60825 8.97825V8.97843C3.5383 9.00719 3.46173 9.00719 3.39178 8.97843C3.36005 8.96396 2.84199e-05 7.56731 2.84199e-05 3.96025L0 3.96053ZM2.00141 4.936L2.95599 6.01595C3.08136 6.1551 3.28219 6.1551 3.40772 6.01595L5.31673 3.85622H5.31688C5.3772 3.78852 5.41114 3.69635 5.4113 3.60025C5.41146 3.50415 5.37783 3.41198 5.31767 3.34392C5.25768 3.27605 5.17621 3.23782 5.09126 3.23818C5.00616 3.23836 4.92484 3.27676 4.865 3.34499L3.18174 5.2529L2.4531 4.425C2.32821 4.28478 2.12674 4.28531 2.00234 4.42607C1.87793 4.56682 1.87747 4.79472 2.00141 4.936Z" fill="#C5A47E"/>
</svg>
