<svg width="20" height="17" viewBox="0 0 20 17" fill="none" xmlns="http://www.w3.org/2000/svg">
<path d="M9.64648 7.04892C9.84175 6.85173 10.1583 6.85173 10.3535 7.04892L13.5358 10.2621C13.7311 10.4593 13.7311 10.7796 13.5358 10.9768C13.3405 11.174 13.0234 11.174 12.8281 10.9768L10.5 8.62492V16.495C10.5 16.7739 10.2761 17 10 17C9.72386 17 9.5 16.7739 9.5 16.495V8.62492L7.17188 10.9768C6.97661 11.174 6.65945 11.174 6.46419 10.9768C6.26893 10.7796 6.26893 10.4593 6.46419 10.2621L9.64648 7.04892Z" fill="#717171"/>
<path d="M7.3457 0C10.7972 0.000144004 13.6926 2.3741 14.4785 5.57418V5.57615C14.7777 5.51602 15.086 5.48279 15.403 5.48279C17.9415 5.48502 19.9999 7.53608 20 10.0681C20 12.5979 17.9438 14.6511 15.4076 14.6534H11.7617V13.6738H15.4076C16.372 13.6737 17.2787 13.2971 17.9596 12.6178C18.6426 11.9364 19.0176 11.0323 19.0176 10.0681C19.0175 9.10611 18.6428 8.19954 17.9596 7.52034C17.2764 6.84111 16.3675 6.46508 15.403 6.46508C15.1463 6.46508 14.894 6.49146 14.6484 6.54266C14.3135 6.61392 13.9919 6.72987 13.6927 6.89244C13.6704 6.54961 13.6191 6.20899 13.541 5.87728V5.87465C13.4606 5.52729 13.349 5.18864 13.2083 4.85686C12.8869 4.10209 12.4292 3.42306 11.8444 2.83969C11.2595 2.25626 10.5806 1.79937 9.82162 1.47869C9.03805 1.14913 8.20516 0.979698 7.3457 0.979657C6.48614 0.979657 5.6528 1.14687 4.86914 1.47869C4.11236 1.79715 3.43125 2.25627 2.84635 2.83969C2.26157 3.42306 1.80387 4.10209 1.48242 4.85686C1.14976 5.63854 0.982422 6.46965 0.982422 7.32704C0.982453 8.18435 1.14979 9.01496 1.48242 9.79657C1.80168 10.5515 2.26142 11.2309 2.84635 11.8144C3.43124 12.3978 4.11238 12.8541 4.86914 13.1747C5.6528 13.5043 6.48614 13.6738 7.3457 13.6738H8.23177V14.6534H7.31641C3.27317 14.6378 0.000129432 11.3645 0 7.32704C0 3.2806 3.28899 0 7.3457 0Z" fill="#717171"/>
</svg>
